<svg xmlns="http://www.w3.org/2000/svg" width="1500" height="900" viewBox="0 0 1500 900">
  <defs><style>.text{font-family:Inter,Segoe UI,Arial,sans-serif}.bg{fill:#edf3f8}.nav{fill:#123456}.panel{fill:#fff;stroke:#d5deea;stroke-width:2}.blue{fill:#2f6fed}.gold{fill:#fff4cf;stroke:#c9a227;stroke-width:2}.h{font-size:40px;font-weight:900;fill:#071827}.s{font-size:18px;font-weight:800;fill:#64748b}.label{font-size:16px;font-weight:900;fill:#64748b}</style></defs>
  <rect class="bg" width="1500" height="900"/>
  <rect x="0" y="0" width="300" height="900" class="nav"/>
  <rect x="34" y="72" width="58" height="58" rx="10" class="blue"/>
  <text x="116" y="102" class="text" font-size="30" font-weight="900" fill="#fff">Alloc Review</text>
  <text x="116" y="130" class="text label" fill="#cbd5e1">Report Builder</text>
  <rect x="28" y="240" width="244" height="54" rx="8" fill="#244b72"/>
  <text x="82" y="275" class="text s" fill="#fff">Query and Export</text>
  <text x="34" y="366" class="text s" fill="#dbeafe">Clients</text>
  <rect x="34" y="402" width="120" height="46" rx="8" fill="#244b72"/><text x="82" y="432" class="text s" fill="#fff">All</text>
  <rect x="164" y="402" width="120" height="46" rx="8" fill="#244b72"/><text x="204" y="432" class="text s" fill="#fff">Clear</text>
  <g fill="#fff"><rect x="42" y="500" width="18" height="18" rx="3"/><rect x="42" y="552" width="18" height="18" rx="3"/><rect x="42" y="604" width="18" height="18" rx="3"/><rect x="42" y="656" width="18" height="18" rx="3"/></g>
  <g class="text s" fill="#fff"><text x="76" y="516">BPI VISAYAS</text><text x="76" y="568">BPI MINDANAO</text><text x="76" y="620">BPI BANKO</text><text x="76" y="672">BPI BUSINESS LOAN</text></g>
  <text x="330" y="92" class="text h">Alloc Review Builder</text>
  <text x="330" y="128" class="text s">Active accounts | Date range | Selected clients</text>
  <rect x="1220" y="58" width="170" height="52" rx="12" class="gold"/><text x="1260" y="91" class="text s" fill="#7c5c00">Template Ready</text>
  <rect x="330" y="174" width="1080" height="250" rx="14" class="panel"/>
  <text x="368" y="222" class="text label">Report Workspace</text><text x="368" y="262" class="text h" font-size="28">Query Setup</text>
  <rect x="368" y="316" width="168" height="52" rx="8" fill="#fff" stroke="#cbd5e1"/><rect x="552" y="316" width="168" height="52" rx="8" fill="#fff" stroke="#cbd5e1"/><rect x="736" y="316" width="168" height="52" rx="8" fill="#fff" stroke="#cbd5e1"/><rect x="920" y="316" width="250" height="52" rx="8" fill="#fff" stroke="#cbd5e1"/><rect x="1192" y="316" width="160" height="52" rx="8" class="blue"/>
  <rect x="330" y="462" width="250" height="120" rx="10" class="panel"/><text x="362" y="508" class="text label">Accounts</text><text x="362" y="552" class="text h">0</text>
  <rect x="604" y="462" width="250" height="120" rx="10" class="panel"/><text x="636" y="508" class="text label">Daily Rows</text><text x="636" y="552" class="text h">0</text>
  <rect x="878" y="462" width="250" height="120" rx="10" class="panel"/><text x="910" y="508" class="text label">Field Rows</text><text x="910" y="552" class="text h">0</text>
  <rect x="1152" y="462" width="258" height="120" rx="10" class="panel"/><text x="1184" y="508" class="text label">Report Rows</text><text x="1184" y="552" class="text h">0</text>
  <rect x="330" y="618" width="520" height="190" rx="12" class="panel"/><text x="368" y="674" class="text h" font-size="30">Daily Remarks Report</text>
  <rect x="886" y="618" width="524" height="190" rx="12" class="panel"/><text x="924" y="674" class="text h" font-size="30">Field Result</text>
</svg>
