<svg xmlns="http://www.w3.org/2000/svg" width="1500" height="900" viewBox="0 0 1500 900">
  <defs><style>.text{font-family:Inter,Segoe UI,Arial,sans-serif}.bg{fill:#1b1b1b}.red{fill:#d72828}.brown{fill:#562000}.orange{fill:#ff5722}.field{fill:#4b2a2a;stroke:#d1d5db;stroke-width:2}.h{font-size:36px;font-weight:900;fill:#ffd84a}.s{font-size:20px;font-weight:700;fill:#fca5a5}</style></defs>
  <rect class="bg" width="1500" height="900"/>
  <rect x="20" y="46" width="1460" height="78" class="red"/>
  <text x="676" y="96" class="text h">Auto Redial</text>
  <rect x="30" y="156" width="1440" height="210" class="brown"/>
  <text x="64" y="206" class="text s">Username:</text><rect x="240" y="188" width="240" height="28" class="field"/>
  <text x="64" y="256" class="text s">Access Key:</text><rect x="240" y="238" width="240" height="28" class="field"/>
  <text x="64" y="306" class="text s">Environment:</text>
  <circle cx="230" cy="300" r="8" fill="#111" stroke="#999"/><text x="252" y="306" class="text" font-size="18" fill="#ffd84a">Environment 1</text>
  <circle cx="360" cy="300" r="8" fill="#111" stroke="#999"/><circle cx="360" cy="300" r="4" fill="#ffd84a"/><text x="382" y="306" class="text" font-size="18" fill="#ffd84a">Environment 2</text>
  <rect x="240" y="330" width="118" height="42" class="orange"/><text x="278" y="358" class="text" font-size="18" font-weight="900">Save</text>
  <rect x="520" y="400" width="460" height="112" class="brown" stroke="#78350f"/>
  <text x="545" y="455" class="text s">Campaign Keywords:</text>
  <rect x="722" y="432" width="240" height="28" class="field"/>
  <rect x="532" y="480" width="128" height="44" class="orange"/><text x="578" y="508" class="text" font-size="20" font-weight="900">Run</text>
  <rect x="678" y="480" width="128" height="44" class="orange"/><text x="722" y="508" class="text" font-size="20" font-weight="900">Stop</text>
  <rect x="824" y="480" width="146" height="44" class="orange"/><text x="868" y="508" class="text" font-size="20" font-weight="900">Download</text>
  <rect x="690" y="566" width="128" height="42" fill="#72320d"/><text x="710" y="594" class="text" font-size="20" font-weight="900" fill="#fef3c7">Status: Stopped</text>
  <rect x="30" y="654" width="1440" height="200" class="brown"/>
  <text x="58" y="690" class="text h" font-size="24">Campaigns</text>
  <rect x="58" y="720" width="1384" height="112" fill="#181818" stroke="#6b2b00"/>
  <rect x="0" y="872" width="1500" height="28" class="red"/><text x="4" y="892" class="text" font-size="16" fill="#ffd84a">Auto Redial v1.0</text>
</svg>
